<mxfile host="app.diagrams.net" modified="2022-02-15T03:00:32.143Z" agent="5.0 (Windows NT 10.0; Win64; x64) AppleWebKit/537.36 (KHTML, like Gecko) Chrome/98.0.4758.82 Safari/537.36" etag="2QxVE5aj6PxPw18TDBKM" version="16.5.6" type="github">
  <diagram id="Bc8X0h1Uzppr7QKpJzSU" name="ページ1">
    <mxGraphModel dx="1038" dy="579" grid="1" gridSize="10" guides="1" tooltips="1" connect="1" arrows="1" fold="1" page="1" pageScale="1" pageWidth="827" pageHeight="1169" math="0" shadow="0">
      <root>
        <mxCell id="0" />
        <mxCell id="1" parent="0" />
        <mxCell id="gHT30ehsmH_b0dTFzvMi-7" style="edgeStyle=orthogonalEdgeStyle;rounded=0;orthogonalLoop=1;jettySize=auto;html=1;exitX=0.5;exitY=1;exitDx=0;exitDy=0;entryX=0.5;entryY=0;entryDx=0;entryDy=0;" parent="1" source="7UFFYupx8HEGo45PfdZk-1" target="7UFFYupx8HEGo45PfdZk-2" edge="1">
          <mxGeometry relative="1" as="geometry" />
        </mxCell>
        <mxCell id="gHT30ehsmH_b0dTFzvMi-8" value="初期画面" style="edgeLabel;html=1;align=center;verticalAlign=middle;resizable=0;points=[];" parent="gHT30ehsmH_b0dTFzvMi-7" vertex="1" connectable="0">
          <mxGeometry x="0.2701" y="-2" relative="1" as="geometry">
            <mxPoint as="offset" />
          </mxGeometry>
        </mxCell>
        <mxCell id="gHT30ehsmH_b0dTFzvMi-14" style="edgeStyle=orthogonalEdgeStyle;rounded=0;orthogonalLoop=1;jettySize=auto;html=1;entryX=1;entryY=0.5;entryDx=0;entryDy=0;exitX=0.5;exitY=0;exitDx=0;exitDy=0;" parent="1" target="7UFFYupx8HEGo45PfdZk-1" edge="1" source="YMjKUBDYmgXyS6czVdlE-1">
          <mxGeometry relative="1" as="geometry">
            <mxPoint x="500" y="250" as="sourcePoint" />
            <Array as="points">
              <mxPoint x="500" y="70" />
            </Array>
          </mxGeometry>
        </mxCell>
        <mxCell id="gHT30ehsmH_b0dTFzvMi-16" value="完了メッセージ" style="edgeLabel;html=1;align=center;verticalAlign=middle;resizable=0;points=[];" parent="gHT30ehsmH_b0dTFzvMi-14" vertex="1" connectable="0">
          <mxGeometry x="-0.3913" y="-2" relative="1" as="geometry">
            <mxPoint as="offset" />
          </mxGeometry>
        </mxCell>
        <mxCell id="7UFFYupx8HEGo45PfdZk-1" value="パン屋" style="rounded=0;whiteSpace=wrap;html=1;" parent="1" vertex="1">
          <mxGeometry x="160" y="40" width="120" height="60" as="geometry" />
        </mxCell>
        <mxCell id="gHT30ehsmH_b0dTFzvMi-3" style="edgeStyle=orthogonalEdgeStyle;rounded=0;orthogonalLoop=1;jettySize=auto;html=1;exitX=0.5;exitY=1;exitDx=0;exitDy=0;entryX=0.5;entryY=0;entryDx=0;entryDy=0;" parent="1" source="7UFFYupx8HEGo45PfdZk-2" target="gHT30ehsmH_b0dTFzvMi-1" edge="1">
          <mxGeometry relative="1" as="geometry" />
        </mxCell>
        <mxCell id="gHT30ehsmH_b0dTFzvMi-4" value="入力完了" style="edgeLabel;html=1;align=center;verticalAlign=middle;resizable=0;points=[];" parent="gHT30ehsmH_b0dTFzvMi-3" vertex="1" connectable="0">
          <mxGeometry x="0.215" y="-2" relative="1" as="geometry">
            <mxPoint as="offset" />
          </mxGeometry>
        </mxCell>
        <mxCell id="7UFFYupx8HEGo45PfdZk-2" value="パン情報入力" style="ellipse;whiteSpace=wrap;html=1;" parent="1" vertex="1">
          <mxGeometry x="160" y="160" width="120" height="80" as="geometry" />
        </mxCell>
        <mxCell id="gHT30ehsmH_b0dTFzvMi-5" style="edgeStyle=orthogonalEdgeStyle;rounded=0;orthogonalLoop=1;jettySize=auto;html=1;exitX=0.5;exitY=1;exitDx=0;exitDy=0;entryX=0.5;entryY=0;entryDx=0;entryDy=0;" parent="1" source="gHT30ehsmH_b0dTFzvMi-1" target="gHT30ehsmH_b0dTFzvMi-2" edge="1">
          <mxGeometry relative="1" as="geometry">
            <Array as="points">
              <mxPoint x="220" y="450" />
              <mxPoint x="220" y="450" />
            </Array>
          </mxGeometry>
        </mxCell>
        <mxCell id="gHT30ehsmH_b0dTFzvMi-6" value="結果" style="edgeLabel;html=1;align=center;verticalAlign=middle;resizable=0;points=[];" parent="gHT30ehsmH_b0dTFzvMi-5" vertex="1" connectable="0">
          <mxGeometry x="0.2802" relative="1" as="geometry">
            <mxPoint as="offset" />
          </mxGeometry>
        </mxCell>
        <mxCell id="gHT30ehsmH_b0dTFzvMi-1" value="審査" style="ellipse;whiteSpace=wrap;html=1;" parent="1" vertex="1">
          <mxGeometry x="160" y="320" width="120" height="80" as="geometry" />
        </mxCell>
        <mxCell id="gHT30ehsmH_b0dTFzvMi-12" style="edgeStyle=orthogonalEdgeStyle;rounded=0;orthogonalLoop=1;jettySize=auto;html=1;exitX=1;exitY=0.5;exitDx=0;exitDy=0;" parent="1" source="gHT30ehsmH_b0dTFzvMi-2" edge="1">
          <mxGeometry relative="1" as="geometry">
            <mxPoint x="500" y="320" as="targetPoint" />
          </mxGeometry>
        </mxCell>
        <mxCell id="gHT30ehsmH_b0dTFzvMi-13" value="挿入" style="edgeLabel;html=1;align=center;verticalAlign=middle;resizable=0;points=[];" parent="gHT30ehsmH_b0dTFzvMi-12" vertex="1" connectable="0">
          <mxGeometry x="0.713" relative="1" as="geometry">
            <mxPoint as="offset" />
          </mxGeometry>
        </mxCell>
        <mxCell id="gHT30ehsmH_b0dTFzvMi-2" value="登録完了" style="ellipse;whiteSpace=wrap;html=1;" parent="1" vertex="1">
          <mxGeometry x="160" y="480" width="120" height="80" as="geometry" />
        </mxCell>
        <mxCell id="YMjKUBDYmgXyS6czVdlE-1" value="パン情報登録" style="shape=partialRectangle;whiteSpace=wrap;html=1;left=0;right=0;fillColor=none;" vertex="1" parent="1">
          <mxGeometry x="440" y="260" width="120" height="60" as="geometry" />
        </mxCell>
      </root>
    </mxGraphModel>
  </diagram>
</mxfile>
